<svg 
          width="14.999996185302734" 
          height="15.000028610229492" fill="none" 
          xmlns="http://www.w3.org/2000/svg">
          <path d="M 9.568725076218804 5.431391894817352 C 11.319125487301694 7.183608636260033 11.295101612089404 9.992855787277222 9.57927152189773 11.71820729970932 C 9.576048865716416 11.72172292463074 9.572240701084345 11.725532269556425 9.568725076218804 11.729047894477844 L 7.599974749883387 13.697797358036041 C 5.863548982822094 15.434223152697086 3.0384814256273556 15.43398879468441 1.3023192973562936 13.697797358036041 C -0.4341064697050001 11.961664594709873 -0.4341064697050001 9.136274568736553 1.3023192973562936 7.400141805410385 L 2.3894092060818704 6.313051879405975 C 2.6776904559701107 6.024770624935627 3.174155249332764 6.216372270137072 3.1890380620711825 6.623774617910385 C 3.2080224368253134 7.142973840236664 3.3011279801472413 7.664604485034943 3.472924847834496 8.1683349609375 C 3.531108438955372 8.338901367969811 3.489536256944046 8.527573230676353 3.3620948555136407 8.655014634132385 L 2.978686493973935 9.038422107696533 C 2.1576123155436857 9.859496299177408 2.1318603713216637 11.196430586278439 2.94484863964956 12.025532126426697 C 3.765864256517248 12.862807530909777 5.115336787605873 12.867787387222052 5.942651236968792 12.04047292470932 L 7.911400669234551 10.072015821933746 C 8.737308858785056 9.246107619255781 8.733851826695934 7.911167051643133 7.911400669234551 7.088715881109238 C 7.802972937309395 6.9804932246916 7.693754086450888 6.896411189809442 7.608441589539154 6.83767095208168 C 7.5480879062593615 6.796226090518758 7.49825577440647 6.74125021789223 7.462919235818845 6.6771286725997925 C 7.4275826972312196 6.613007127307355 7.407720449319339 6.541514452546835 7.404916913828551 6.4683544635772705 C 7.393315351575817 6.158774374052882 7.503002334338359 5.839760731905699 7.747631247875957 5.595131814479828 L 8.364448116390701 4.978286325931549 C 8.526196158012576 4.816538281738758 8.77993593472589 4.796674917452037 8.967494524041863 4.927573353052139 C 9.182290009491963 5.077558569610119 9.383475645310533 5.246147965081036 9.568725076218804 5.431391894817352 Z M 13.697680017190242 1.3022314757108688 C 11.96151788891918 -0.4339599609375 9.136450331724442 -0.43419431895017624 7.400024564663148 1.3022314757108688 L 5.431274238327732 3.2709813863039017 C 5.427758613462192 3.2744970112253213 5.4239500017952915 3.2783054620813346 5.420727345613977 3.281821087002754 C 3.7049265362035833 5.007172599434853 3.680873827244842 7.816420868039131 5.431274238327732 9.568637609481812 C 5.616512730852538 9.753873171284795 5.81768902084922 9.922452284954488 6.0324757332408065 10.072426199913025 C 6.220034322556779 10.203324635513127 6.473803841056041 10.183432423509657 6.635522587926797 10.021713674068451 L 7.252339009406712 9.404868185520172 C 7.49696792294431 9.160239268094301 7.606654458672024 8.841225625947118 7.59505289641929 8.53164553642273 C 7.592249360928501 8.458485547453165 7.57238756005145 8.386992872692645 7.537051021463824 8.322871327400208 C 7.501714482876199 8.25874978210777 7.451881903988479 8.203773462446406 7.391528220708686 8.162328600883484 C 7.306215723796952 8.103588363155723 7.1969968729384455 8.019506328273565 7.08856914101329 7.9112836718559265 C 6.266117983551906 7.088832501322031 6.2626609514627845 5.753891486674547 7.08856914101329 4.927983283996582 L 9.057319020313878 2.9595261812210083 C 9.884633469676798 2.1322117187082767 11.234076272949311 2.1371922455728054 12.05512117059828 2.9744676500558853 C 12.868109438926176 3.8035691902041435 12.842386831364788 5.140503253787756 12.021283316273905 5.961577445268631 L 11.637875848803857 6.344985365867615 C 11.510434447373452 6.472426769323647 11.468861594809882 6.661098632030189 11.527045185930758 6.8316650390625 C 11.698842053618012 7.335395514965057 11.791947596939941 7.8570257127285 11.810931971694073 8.376224935054779 C 11.82584408092984 8.783627282828093 12.32227980131256 8.975229375064373 12.610561051200799 8.686948120594025 L 13.697650512891547 7.599857747554779 C 15.434105560734121 5.863754265010357 15.434105784251535 3.038364239037037 13.697680017190242 1.3022314757108688 Z" fill="rgb(255,255,255)"/>
        </svg>